<?xml version="1.0" standalone="no"?>
<!DOCTYPE svg PUBLIC "-//W3C//DTD SVG 20010904//EN"
 "http://www.w3.org/TR/2001/REC-SVG-20010904/DTD/svg10.dtd">
<svg version="1.0" xmlns="http://www.w3.org/2000/svg"
 width="700.000000pt" height="700.000000pt" viewBox="0 0 700.000000 700.000000"
 preserveAspectRatio="xMidYMid meet">
<metadata>
Created by potrace 1.14, written by Peter Selinger 2001-2017
</metadata>
<g transform="translate(0.000000,700.000000) scale(0.100000,-0.100000)"
fill="#000000" stroke="none">
<path d="M4870 6745 c-58 -18 -199 -63 -315 -100 -115 -37 -309 -98 -430 -136
-121 -38 -239 -76 -262 -85 -75 -27 -91 -56 -203 -370 -56 -159 -121 -338
-143 -399 -21 -60 -49 -138 -60 -172 l-21 -63 -46 -1 c-105 -2 -328 -18 -450
-34 -202 -25 -480 -93 -569 -140 -17 -8 -31 -13 -31 -10 0 4 -12 -2 -27 -12
-16 -11 -39 -24 -53 -30 -36 -15 -118 -90 -135 -123 -8 -15 -17 -51 -19 -80
-3 -28 -10 -77 -15 -108 -5 -31 -12 -75 -15 -97 -3 -22 -13 -83 -21 -135 -9
-52 -18 -111 -21 -130 -3 -19 -9 -60 -14 -90 -5 -30 -11 -71 -14 -90 -4 -29
-25 -161 -41 -260 -11 -70 -44 -279 -50 -325 -2 -11 -13 -81 -25 -155 -12 -74
-23 -146 -25 -160 -13 -91 -44 -267 -59 -335 -32 -148 -39 -216 -37 -380 0
-77 2 -149 5 -160 2 -11 7 -45 11 -75 9 -69 41 -206 67 -285 152 -460 478
-827 918 -1033 142 -67 316 -121 440 -139 19 -2 52 -8 73 -13 21 -4 127 -7
235 -6 225 3 363 26 553 92 518 180 926 605 1086 1129 28 92 28 93 47 200 30
165 36 365 16 515 -13 97 -12 93 -39 220 -11 52 -22 113 -25 135 -4 22 -11 65
-16 95 -5 30 -12 75 -15 100 -4 25 -15 101 -26 170 -27 167 -27 168 -34 220
-3 25 -8 52 -10 60 -2 8 -6 33 -9 55 -4 22 -8 51 -11 65 -3 14 -7 42 -10 63
-10 71 -15 111 -21 141 -3 17 -14 85 -24 151 -10 66 -28 181 -40 255 -27 177
-27 172 -41 265 -19 124 -53 175 -163 244 -104 65 -348 142 -556 177 -133 22
-222 30 -225 20 -9 -24 -35 -135 -35 -144 0 -6 8 -11 18 -10 22 0 131 -13 217
-28 81 -13 247 -59 300 -84 108 -49 144 -110 98 -163 -34 -37 -188 -103 -283
-121 -14 -3 -59 -12 -100 -20 -41 -8 -100 -17 -130 -21 -30 -3 -74 -8 -97 -11
-121 -15 -264 -20 -508 -18 -148 1 -280 5 -292 8 -12 2 -55 7 -96 11 -41 3
-87 8 -103 11 -16 3 -40 7 -54 8 -112 12 -330 73 -397 112 -23 13 -51 38 -63
55 -19 26 -20 34 -10 59 14 34 75 77 145 103 96 36 286 78 425 92 30 4 69 8
85 11 17 2 90 7 164 10 l133 7 -7 -24 c-4 -13 -12 -35 -18 -49 -6 -14 -11 -27
-12 -30 -11 -39 -27 -85 -44 -127 l-21 -53 184 0 183 0 28 78 c22 64 279 787
359 1012 l24 65 143 47 c79 25 194 62 254 81 227 72 473 150 555 176 47 15 85
32 85 37 0 18 -99 314 -104 313 -3 0 -53 -16 -111 -34z m-2602 -3217 c-15
-109 -12 -295 7 -386 33 -161 92 -304 172 -417 85 -118 243 -250 388 -323 62
-31 204 -79 259 -87 17 -3 56 -9 86 -14 84 -13 245 -5 333 18 164 43 234 89
428 281 81 80 172 160 203 179 56 33 159 79 199 87 93 20 131 24 212 24 122 0
256 -26 378 -72 l28 -11 -5 -101 c-25 -556 -319 -1010 -808 -1249 -348 -171
-759 -205 -1103 -92 -260 85 -497 257 -663 480 -147 199 -257 472 -288 715 -3
25 -9 70 -13 100 -24 190 16 488 93 703 33 90 92 227 99 227 2 0 0 -28 -5 -62z
m768 -239 c55 -53 115 -182 130 -279 2 -14 7 -40 10 -59 13 -77 4 -250 -19
-380 l-12 -65 -44 45 c-205 208 -333 424 -334 563 -1 72 17 110 75 167 68 66
132 68 194 8z m775 -29 c78 -22 105 -94 75 -208 -38 -148 -161 -313 -326 -436
-30 -22 -57 -43 -60 -46 -8 -10 -77 -50 -84 -50 -6 0 0 166 8 219 3 14 7 49
11 76 21 172 78 318 151 391 56 57 141 77 225 54z"/>
<path d="M3903 992 c-6 -4 -13 -28 -17 -54 -22 -146 -149 -278 -303 -314 -224
-52 -465 124 -472 345 l-1 24 -97 -7 c-54 -3 -111 -8 -128 -11 -16 -3 -48 -7
-70 -9 -55 -5 -236 -36 -244 -40 -4 -3 -26 -7 -50 -11 -56 -8 -198 -49 -281
-81 -421 -160 -327 -377 220 -508 100 -24 194 -42 263 -51 18 -3 41 -7 52 -9
11 -2 52 -7 90 -11 39 -4 81 -8 95 -11 125 -19 787 -27 960 -11 47 5 103 10
125 12 94 9 191 21 239 31 11 2 41 7 66 10 25 3 61 9 80 14 19 5 49 12 66 14
48 9 202 54 276 82 199 75 290 185 233 281 -83 139 -492 265 -1004 309 -36 3
-71 7 -77 9 -6 2 -15 0 -21 -3z"/>
</g>
</svg>
