<?xml version="1.0" standalone="no"?>
<!DOCTYPE svg PUBLIC "-//W3C//DTD SVG 20010904//EN"
 "http://www.w3.org/TR/2001/REC-SVG-20010904/DTD/svg10.dtd">
<svg version="1.0" xmlns="http://www.w3.org/2000/svg"
 width="1024.000000pt" height="1024.000000pt" viewBox="0 0 1024.000000 1024.000000"
 preserveAspectRatio="xMidYMid meet">
<metadata>
Created by potrace 1.14, written by Peter Selinger 2001-2017
</metadata>
<g transform="translate(0.000000,1024.000000) scale(0.100000,-0.100000)"
fill="#000000" stroke="none">
<path d="M2718 9893 c-21 -2 -38 -9 -38 -14 0 -11 121 -300 214 -513 37 -82
65 -150 64 -151 -2 -2 -22 -12 -46 -24 -77 -39 -161 -143 -204 -253 -33 -82
-37 -274 -10 -365 41 -132 132 -252 230 -300 28 -14 52 -32 52 -40 0 -8 -27
-58 -59 -111 -33 -53 -84 -149 -114 -212 -140 -294 -177 -503 -177 -993 0
-206 3 -257 14 -266 8 -6 69 -19 137 -28 68 -9 129 -21 135 -27 11 -11 -64
-444 -164 -946 -90 -448 -112 -645 -113 -993 -2 -711 113 -1041 495 -1423 143
-143 240 -220 409 -327 93 -58 374 -207 391 -207 3 0 29 -11 58 -24 95 -43
343 -124 494 -162 82 -20 153 -40 157 -44 4 -4 -5 -31 -20 -61 -22 -43 -28
-71 -31 -136 -4 -75 -1 -89 26 -146 35 -75 69 -116 162 -192 42 -34 70 -65 70
-76 0 -21 -74 -207 -88 -221 -4 -4 -87 -15 -183 -23 -318 -28 -502 -51 -752
-95 -370 -65 -699 -193 -826 -321 -57 -58 -63 -79 -59 -198 3 -99 5 -111 33
-157 109 -175 502 -308 1205 -408 375 -53 433 -58 833 -63 526 -7 861 12 1272
73 651 97 1062 248 1146 421 19 39 23 64 23 138 1 80 -2 96 -27 137 -76 131
-284 234 -672 333 -219 56 -551 104 -968 140 -87 7 -161 15 -163 18 -6 6 -69
184 -78 219 -6 25 0 32 67 83 80 60 122 106 158 175 18 35 24 65 27 140 3 90
2 98 -27 155 -16 32 -29 61 -27 62 2 2 57 17 122 33 568 139 1081 407 1413
739 42 42 113 126 159 186 236 314 322 643 322 1227 0 355 -27 566 -150 1193
-136 694 -244 1475 -296 2140 -7 86 -9 92 -43 126 -86 86 -381 155 -849 198
-57 5 -106 12 -109 14 -11 12 52 268 83 335 48 105 135 190 248 242 101 47
125 52 531 125 546 98 1029 186 1077 196 54 12 102 58 113 107 17 80 -50 172
-124 172 -44 0 -234 -31 -516 -85 -487 -92 -618 -117 -720 -135 -60 -11 -144
-27 -187 -36 -42 -8 -112 -17 -155 -18 -97 -4 -164 -29 -264 -97 -100 -68
-141 -109 -205 -205 -89 -134 -131 -252 -170 -481 -13 -79 -21 -104 -35 -108
-9 -3 -104 0 -211 6 -107 7 -382 11 -620 10 l-427 -2 -68 62 c-170 155 -279
197 -583 223 -96 9 -205 19 -242 22 l-68 6 0 84 c0 122 -31 207 -121 329 -70
95 -143 151 -253 195 -74 30 -85 31 -170 27 -50 -3 -102 -8 -116 -12 -26 -6
-27 -3 -128 252 -56 142 -110 281 -120 308 -19 49 -20 50 -63 51 -24 1 -61 -1
-81 -3z m3274 -1653 c-3 -41 -7 -50 -23 -50 -10 0 -19 6 -20 13 0 8 -2 8 -5 1
-7 -18 -78 10 -83 33 -2 10 -8 21 -15 25 -6 4 1 8 16 8 15 0 30 5 33 10 3 6
27 10 53 10 l47 0 -3 -50z m-1162 20 c0 -5 -2 -10 -4 -10 -3 0 -8 5 -11 10 -3
6 -1 10 4 10 6 0 11 -4 11 -10z m96 -141 c-3 17 -2 21 6 13 6 -6 7 -19 4 -29
-7 -17 -8 -17 -22 1 -8 11 -14 25 -14 30 1 6 8 0 16 -14 l15 -25 -5 24z m29
-48 c0 -4 16 -21 35 -39 20 -18 29 -32 21 -32 -10 0 -8 -6 8 -21 18 -17 20
-24 10 -35 -6 -8 -9 -17 -5 -21 3 -3 6 -2 6 4 0 5 6 10 14 10 8 0 12 -6 8 -15
-3 -9 -1 -13 4 -9 6 3 16 2 24 -4 11 -6 7 -9 -14 -9 -32 0 -26 -14 9 -23 15
-4 13 -5 -7 -6 -18 -1 -28 -7 -28 -16 0 -13 36 -15 258 -17 141 -1 231 -3 200
-5 -110 -7 -57 -20 90 -22 81 -1 166 -4 187 -7 22 -4 70 -7 108 -7 78 -2 74 8
57 -136 -5 -47 -19 -171 -30 -276 -27 -247 -23 -234 -68 -225 -55 9 -568 11
-719 2 -110 -7 -138 -11 -160 -29 -31 -22 -41 -57 -23 -79 10 -11 9 -14 -3
-14 -12 0 -15 -8 -10 -36 5 -30 2 -39 -24 -62 -35 -33 -160 -95 -173 -87 -6 4
-10 -1 -10 -10 0 -9 5 -13 10 -10 6 3 10 1 10 -4 0 -6 6 -11 14 -11 23 0 160
-60 176 -77 8 -9 9 -13 3 -9 -17 9 -16 1 2 -34 23 -45 60 -80 84 -80 11 0 21
-4 21 -10 0 -5 10 -10 23 -10 21 -1 21 -1 2 -12 -11 -6 -22 -15 -25 -18 -3 -4
-14 -9 -25 -11 -11 -3 -21 -13 -24 -24 -2 -11 -9 -24 -17 -30 -9 -7 -14 -38
-16 -97 -2 -68 -6 -88 -16 -88 -10 0 -13 -10 -10 -37 3 -21 1 -56 -4 -78 -5
-22 -11 -83 -12 -135 -4 -107 -15 -190 -26 -190 -7 0 -17 -91 -24 -214 -2 -32
-8 -61 -14 -65 -6 -4 -17 -37 -24 -74 -7 -37 -16 -67 -20 -67 -5 0 -8 -14 -8
-31 0 -20 -9 -40 -22 -53 -27 -26 -46 -54 -54 -78 -4 -10 -13 -18 -20 -18 -8
0 -14 -6 -14 -14 0 -8 -10 -18 -22 -22 -13 -4 -30 -15 -38 -24 -22 -25 -76
-51 -93 -44 -8 3 -18 1 -22 -5 -3 -6 -1 -11 6 -11 9 0 10 -3 3 -10 -8 -8 -18
-8 -36 0 -19 9 -33 8 -63 -4 -20 -9 -54 -15 -74 -14 -35 1 -35 1 9 8 l45 7
-38 1 c-64 3 -127 23 -127 40 0 13 -3 12 -14 -4 -14 -19 -15 -19 -35 3 -17 18
-26 21 -45 13 -17 -6 -26 -5 -29 3 -2 7 -29 21 -58 31 -30 11 -58 25 -62 33
-4 7 -22 13 -40 13 -24 0 -35 6 -42 23 -6 12 -28 31 -50 41 -22 11 -44 25 -50
31 -20 22 -35 56 -29 66 3 5 1 16 -5 23 -14 17 -62 148 -56 154 2 3 -2 19 -9
37 -15 35 -14 63 9 285 8 80 20 192 26 250 6 58 14 112 17 120 5 14 23 107 38
200 3 19 13 41 22 48 15 11 15 14 2 22 -13 9 -13 10 0 10 12 0 13 2 1 9 -16
10 60 29 149 38 56 5 56 6 78 54 12 27 28 49 36 49 9 0 20 9 26 19 8 16 5 23
-15 38 -24 17 -25 23 -27 133 -1 63 -4 105 -6 93 -3 -21 -4 -21 -23 -5 -11 9
-22 15 -26 14 -3 -2 -10 2 -14 10 -7 10 -9 8 -9 -6 0 -15 -3 -16 -15 -6 -12
10 -15 10 -15 -4 0 -13 -4 -14 -25 -4 -24 11 -23 12 42 54 36 24 68 44 70 44
8 0 83 65 83 73 0 4 -10 7 -21 7 -21 0 -22 1 -14 163 3 89 11 194 16 232 4 39
9 99 9 135 0 36 4 70 8 76 7 11 433 2 569 -12 l62 -6 -11 -27 c-6 -14 -12 -57
-13 -96 -2 -38 -3 -78 -4 -87 -1 -10 -9 -18 -19 -18 -20 0 -46 -45 -37 -60 3
-5 -2 -21 -11 -35 -9 -14 -14 -25 -12 -25 3 0 40 17 84 39 178 86 270 130 295
140 22 8 28 17 31 53 3 24 -1 58 -8 76 -13 32 -13 32 -83 32 -46 0 -71 4 -71
11 0 6 -9 9 -19 6 -15 -3 -18 -1 -14 11 5 12 2 14 -13 8 -30 -12 -36 -12 -41
1 -8 22 88 34 147 19 21 -5 22 -5 5 3 -16 8 -13 10 20 10 30 1 36 4 27 13 -7
7 -12 20 -12 30 0 11 -9 37 -20 58 -11 22 -17 40 -13 40 5 0 3 4 -3 8 -18 11
-45 72 -38 83 6 10 19 4 19 -10z m1008 -143 c-4 -48 -10 -68 -19 -68 -15 0
-19 15 -6 23 4 2 3 3 -3 2 -5 -1 -26 3 -45 10 l-35 13 28 7 c15 4 36 5 47 2
16 -4 20 0 20 19 0 24 -14 32 -25 14 -3 -5 -15 -10 -26 -10 -33 0 -16 24 24
34 20 5 37 14 37 19 0 6 2 8 4 6 2 -2 2 -34 -1 -71z m338 7 c-8 -51 -41 -64
-41 -16 0 29 19 56 21 29 0 -7 5 -2 10 11 13 34 18 23 10 -24z m16 -27 c-3 -7
-5 -2 -5 12 0 14 2 19 5 13 2 -7 2 -19 0 -25z m-179 -45 c-21 -2 -55 -2 -75 0
-21 2 -4 4 37 4 41 0 58 -2 38 -4z m-1391 -49 c-3 -3 -12 -4 -19 -1 -8 3 -5 6
6 6 11 1 17 -2 13 -5z m1611 -5 c45 -1 79 -6 76 -10 -9 -14 39 -10 70 6 15 8
45 14 65 13 34 -1 34 -1 -9 -7 -33 -4 -46 -11 -48 -25 -2 -10 0 -16 5 -13 4 2
17 1 28 -4 18 -7 -35 -12 -132 -13 -13 0 -23 -4 -23 -8 0 -4 10 -8 21 -8 18 0
19 -3 9 -14 -6 -8 -18 -12 -26 -9 -9 3 -14 -1 -14 -12 0 -14 -3 -15 -14 -6
-10 8 -16 9 -21 1 -9 -14 3 -30 18 -24 8 3 18 -10 26 -31 10 -30 17 -35 43
-35 17 0 28 -3 25 -7 -11 -10 24 -43 45 -43 10 0 18 5 18 10 0 6 9 10 20 10
11 0 20 -4 20 -10 0 -5 -7 -10 -15 -10 -8 0 -15 -4 -15 -10 0 -5 7 -10 15 -10
8 0 15 -4 15 -10 0 -5 14 -10 30 -10 28 0 30 -2 30 -40 0 -33 3 -40 20 -40 17
0 20 7 20 40 0 29 4 40 15 40 11 0 15 -11 15 -40 0 -29 -4 -40 -15 -40 -28 0
-19 -73 13 -106 l27 -29 3 28 c7 56 22 24 22 -45 0 -40 3 -82 6 -94 3 -12 -1
-27 -10 -37 -28 -27 -19 -37 32 -36 27 1 57 -3 68 -10 15 -9 7 -10 -41 -6 -33
3 -73 1 -90 -5 l-30 -10 33 5 c17 2 32 1 32 -4 0 -16 -28 -20 -86 -10 -33 5
-81 11 -109 14 -27 2 -104 10 -170 18 -66 8 -136 15 -154 16 -19 1 -37 4 -39
6 -3 2 2 53 11 112 8 59 28 212 43 340 16 127 31 230 34 228 4 -2 43 -5 88 -6z
m-1480 -136 c-4 -22 -22 -20 -26 1 -2 10 3 16 13 16 10 0 15 -7 13 -17z m1629
-79 c-3 -3 -12 -4 -19 -1 -8 3 -5 6 6 6 11 1 17 -2 13 -5z m-868 -960 c10 -9
-15 -24 -41 -24 -24 0 -28 3 -19 13 6 8 7 17 3 21 -6 7 48 -3 57 -10z m248 10
c-3 -3 -12 -4 -19 -1 -8 3 -5 6 6 6 11 1 17 -2 13 -5z m-370 -4169 c-2 -5 -25
-22 -51 -36 -69 -38 -54 -42 95 -24 45 5 68 4 73 -4 11 -18 -12 -50 -42 -57
-15 -4 -47 -16 -72 -27 l-45 -20 30 -8 c17 -5 60 -6 98 -2 l67 6 0 -26 c0 -15
-6 -46 -14 -69 -8 -24 -17 -61 -21 -82 -14 -80 -121 -188 -216 -217 -19 -6
-100 -13 -180 -16 -190 -7 -279 10 -337 65 -54 51 -70 79 -82 142 -6 29 -17
62 -26 71 -9 10 -19 38 -21 62 l-5 44 108 7 c123 7 197 16 191 23 -3 2 -17 6
-32 9 -64 12 -135 34 -160 50 -25 16 -26 19 -9 25 11 4 36 8 57 8 21 1 36 5
32 10 -3 6 2 14 11 19 9 5 14 13 12 18 -2 5 62 10 147 11 226 3 310 11 335 33
18 16 25 17 41 7 10 -6 18 -16 16 -22z m-674 -76 c-8 -8 -16 -8 -30 0 -16 9
-14 10 12 11 21 0 26 -3 18 -11z m-165 -898 c-13 -15 -26 -27 -30 -25 -3 2 -8
-1 -10 -8 -2 -6 -10 -8 -16 -4 -17 10 -15 26 3 26 8 0 15 5 15 10 0 10 33 28
53 29 5 1 -2 -12 -15 -28z m410 -31 c31 -19 43 -52 22 -65 -24 -15 -70 -112
-70 -147 0 -21 4 -38 8 -38 17 0 44 -66 40 -100 l-3 -35 -71 -3 c-39 -2 -82 2
-97 7 -24 9 -25 13 -17 42 5 18 18 42 29 53 14 15 26 57 41 146 28 162 46 183
118 140z m692 -10 c0 -5 -9 -10 -20 -10 -11 0 -20 5 -20 10 0 6 9 10 20 10 11
0 20 -4 20 -10z m-1160 -40 c0 -5 -5 -10 -11 -10 -5 0 -7 5 -4 10 3 6 8 10 11
10 2 0 4 -4 4 -10z m1280 -257 c0 -26 -2 -44 -4 -42 -8 9 -13 98 -5 93 5 -3 9
-26 9 -51z m-13 -95 c-3 -7 -5 -2 -5 12 0 14 2 19 5 13 2 -7 2 -19 0 -25z
m-17 -33 c0 -8 -9 -24 -20 -35 -11 -11 -23 -34 -27 -50 -3 -17 -9 -30 -14 -30
-5 0 -9 -9 -9 -20 0 -10 -14 -33 -30 -50 -17 -17 -28 -35 -25 -41 4 -5 1 -9
-5 -9 -23 0 15 -26 60 -40 33 -11 94 -15 227 -15 101 0 175 -3 165 -6 -25 -9
-307 -46 -457 -59 -65 -6 -131 -13 -145 -17 -20 -5 -13 6 38 57 35 35 94 111
132 169 37 58 75 114 84 124 9 9 16 22 16 27 0 6 2 10 5 10 3 0 5 -7 5 -15z
m-2630 -30 c16 -20 -3 -20 -45 0 l-30 13 31 1 c17 1 37 -6 44 -14z m46 -14 c5
-5 29 -13 54 -19 25 -5 97 -23 160 -40 63 -16 144 -35 180 -41 36 -6 115 -20
175 -30 149 -26 415 -63 668 -92 92 -11 117 -5 117 28 0 8 4 11 10 8 6 -3 7 1
4 9 -10 27 11 18 28 -12 9 -16 40 -50 67 -76 28 -26 51 -49 51 -51 0 -11 -103
-3 -375 30 -392 48 -506 67 -730 124 -113 28 -202 53 -220 60 -115 48 -172 71
-185 73 -16 3 -30 17 -30 31 0 10 14 9 26 -2z m2155 -26 c22 -5 28 -10 20 -18
-6 -6 -19 -12 -28 -13 -10 -1 -40 -5 -68 -9 -50 -8 -269 -18 -332 -15 -10 0
-36 0 -58 0 -43 0 -95 17 -95 31 0 11 -14 9 110 16 58 3 106 6 107 7 7 5 319
6 344 1z"/>
<path d="M5100 7810 c0 -5 5 -10 11 -10 5 0 7 5 4 10 -3 6 -8 10 -11 10 -2 0
-4 -4 -4 -10z"/>
<path d="M4988 7803 c7 -3 16 -2 19 1 4 3 -2 6 -13 5 -11 0 -14 -3 -6 -6z"/>
<path d="M5028 7793 c7 -3 16 -2 19 1 4 3 -2 6 -13 5 -11 0 -14 -3 -6 -6z"/>
<path d="M5660 7740 c-14 -4 -69 -8 -122 -9 l-98 -1 0 -30 c0 -28 -2 -30 -40
-30 -40 0 -55 -15 -22 -22 9 -2 -14 -7 -53 -11 -38 -4 -92 -13 -119 -19 -40
-9 -46 -12 -31 -21 12 -6 136 -8 345 -5 344 5 388 11 357 46 -11 12 -13 22 -6
35 7 12 7 17 -2 17 -6 0 -9 7 -6 15 4 8 1 18 -6 22 -18 11 -107 21 -107 11 0
-4 -16 -8 -36 -8 -21 0 -33 4 -29 10 3 6 5 10 3 9 -2 -1 -14 -5 -28 -9z m68
-27 c-10 -2 -26 -2 -35 0 -10 3 -2 5 17 5 19 0 27 -2 18 -5z"/>
<path d="M4338 5163 c12 -2 32 -2 45 0 12 2 2 4 -23 4 -25 0 -35 -2 -22 -4z"/>
</g>
</svg>
